<svg id="doc-svgrepo-com" xmlns="http://www.w3.org/2000/svg" width="53.755" height="61.435" viewBox="0 0 53.755 61.435">
  <path id="Path_115" data-name="Path 115" d="M99.84,0A3.851,3.851,0,0,0,96,3.84V57.595a3.851,3.851,0,0,0,3.84,3.84h38.4a3.851,3.851,0,0,0,3.84-3.84V15.359L126.717,0Z" transform="translate(-88.321)" fill="#e2e5e7"/>
  <path id="Path_116" data-name="Path 116" d="M355.84,15.359h11.519L352,0V11.519A3.851,3.851,0,0,0,355.84,15.359Z" transform="translate(-313.603)" fill="#b0b7bd"/>
  <path id="Path_117" data-name="Path 117" d="M395.519,139.519,384,128h11.519Z" transform="translate(-341.764 -112.641)" fill="#cad1d8"/>
  <path id="Path_118" data-name="Path 118" d="M78.076,261.118a1.925,1.925,0,0,1-1.92,1.92H33.92a1.925,1.925,0,0,1-1.92-1.92v-19.2A1.925,1.925,0,0,1,33.92,240H76.156a1.925,1.925,0,0,1,1.92,1.92Z" transform="translate(-32 -211.203)" fill="#50bee8"/>
  <g id="Group_197" data-name="Group 197" transform="translate(6.209 35.07)">
    <path id="Path_119" data-name="Path 119" d="M84.8,306.094a.962.962,0,0,1-1.06-.952v-8.718a1.043,1.043,0,0,1,1.06-.952h3.515c7.015,0,6.86,10.622.136,10.622Zm.968-8.751v6.877h2.548c4.145,0,4.327-6.877,0-6.877Z" transform="translate(-83.744 -295.088)" fill="#fff"/>
    <path id="Path_120" data-name="Path 120" d="M185.548,303.432a5.36,5.36,0,0,1-5.788-5.527,5.641,5.641,0,0,1,11.283,0A5.353,5.353,0,0,1,185.548,303.432Zm-.169-9.163a3.639,3.639,0,1,0,3.653,3.638A3.513,3.513,0,0,0,185.379,294.269Z" transform="translate(-168.239 -292.272)" fill="#fff"/>
    <path id="Path_121" data-name="Path 121" d="M288.848,298.678a5.167,5.167,0,0,1,5.389-5.51,5.016,5.016,0,0,1,3.515,1.367,1,1,0,1,1-1.367,1.442,2.649,2.649,0,0,0-2.148-.843,3.317,3.317,0,0,0-3.5,3.546,3.376,3.376,0,0,0,3.5,3.653,3.586,3.586,0,0,0,2.4-.983,1.03,1.03,0,0,1,1.411.184,1.059,1.059,0,0,1-.169,1.442,5.021,5.021,0,0,1-3.64,1.2C290.522,304.176,288.848,301.64,288.848,298.678Z" transform="translate(-264.238 -293.061)" fill="#fff"/>
  </g>
  <path id="Path_122" data-name="Path 122" d="M132.477,417.92H96v1.92h36.477a1.925,1.925,0,0,0,1.92-1.92V416A1.925,1.925,0,0,1,132.477,417.92Z" transform="translate(-88.321 -366.084)" fill="#cad1d8"/>
</svg>
