<svg xmlns="http://www.w3.org/2000/svg" width="18.252" height="18.485" viewBox="0 0 18.252 18.485">
  <g id="Group_240" data-name="Group 240" transform="translate(-1755.748 -69.758)">
    <path id="bell_3_" data-name="bell (3)" d="M17.6,10.522,16.134,5.257A7.178,7.178,0,0,0,2.21,5.622L1.078,10.717A3.851,3.851,0,0,0,4.837,15.4h.858a3.851,3.851,0,0,0,7.547,0h.645a3.851,3.851,0,0,0,3.71-4.881ZM9.468,16.943A2.31,2.31,0,0,1,7.3,15.4h4.337a2.31,2.31,0,0,1-2.169,1.54Zm6.258-3.993a2.293,2.293,0,0,1-1.84.913H4.837a2.31,2.31,0,0,1-2.255-2.812l1.132-5.1A5.638,5.638,0,0,1,14.65,5.669l1.463,5.265a2.293,2.293,0,0,1-.387,2.016Z" transform="translate(1754.762 69.756)" fill="#373737"/>
    <circle id="Ellipse_63" data-name="Ellipse 63" cx="3.5" cy="3.5" r="3.5" transform="translate(1767 70)" fill="#f64d3c"/>
  </g>
</svg>
