<svg id="pdf-svgrepo-com_2_" data-name="pdf-svgrepo-com (2)" xmlns="http://www.w3.org/2000/svg" width="54" height="61.714" viewBox="0 0 54 61.714">
  <path id="Path_107" data-name="Path 107" d="M99.857,0A3.868,3.868,0,0,0,96,3.857v54a3.868,3.868,0,0,0,3.857,3.857h38.571a3.868,3.868,0,0,0,3.857-3.857V15.429L126.857,0Z" transform="translate(-88.286)" fill="#e2e5e7"/>
  <path id="Path_108" data-name="Path 108" d="M355.857,15.429h11.571L352,0V11.571A3.868,3.868,0,0,0,355.857,15.429Z" transform="translate(-313.429)" fill="#b0b7bd"/>
  <path id="Path_109" data-name="Path 109" d="M395.571,139.571,384,128h11.571Z" transform="translate(-341.571 -112.571)" fill="#cad1d8"/>
  <path id="Path_110" data-name="Path 110" d="M78.286,261.214a1.934,1.934,0,0,1-1.929,1.929H33.929A1.934,1.934,0,0,1,32,261.214V241.929A1.934,1.934,0,0,1,33.929,240H76.357a1.934,1.934,0,0,1,1.929,1.929Z" transform="translate(-32 -211.071)" fill="#f15642"/>
  <g id="Group_188" data-name="Group 188" transform="translate(8.407 35.476)">
    <path id="Path_111" data-name="Path 111" d="M101.744,295.385a1.061,1.061,0,0,1,1.047-1.065h3.562a3.855,3.855,0,0,1,0,7.71h-2.575v2.037a.968.968,0,0,1-.987,1.063,1.039,1.039,0,0,1-1.047-1.063Zm2.035.878V300.1h2.575a1.922,1.922,0,0,0,0-3.842Z" transform="translate(-101.744 -294.32)" fill="#fff"/>
    <path id="Path_112" data-name="Path 112" d="M188.889,306.143a.965.965,0,0,1-1.065-.955v-8.76a1.049,1.049,0,0,1,1.065-.957h3.531c7.047,0,6.893,10.671.139,10.671Zm.972-8.788v6.908h2.559c4.164,0,4.349-6.908,0-6.908Z" transform="translate(-177.448 -295.333)" fill="#fff"/>
    <path id="Path_113" data-name="Path 113" d="M289.153,297.464v2.451h3.932a1.193,1.193,0,0,1,1.111,1.093,1.072,1.072,0,0,1-1.111.926h-3.932v3.238a.914.914,0,0,1-.924.955.98.98,0,0,1-1.094-.955v-8.76a.975.975,0,0,1,1.094-.957h5.413a.962.962,0,0,1,1.08.957,1.065,1.065,0,0,1-1.08,1.049h-4.49Z" transform="translate(-264.79 -295.319)" fill="#fff"/>
  </g>
  <path id="Path_114" data-name="Path 114" d="M132.643,417.929H96v1.929h36.643a1.934,1.934,0,0,0,1.929-1.929V416A1.934,1.934,0,0,1,132.643,417.929Z" transform="translate(-88.286 -365.857)" fill="#cad1d8"/>
</svg>
