<svg xmlns="http://www.w3.org/2000/svg" width="12.845" height="15.414" viewBox="0 0 12.845 15.414">
  <g id="Group_216" data-name="Group 216" transform="translate(0 0)">
    <path id="file-invoice_1_" data-name="file-invoice (1)" d="M13.529,3.556,11.29,1.318A4.467,4.467,0,0,0,8.111,0h-2.9A3.214,3.214,0,0,0,2,3.212V12.2a3.215,3.215,0,0,0,3.211,3.211h6.423A3.215,3.215,0,0,0,14.845,12.2V6.735a4.468,4.468,0,0,0-1.317-3.179Zm-.908.908a3.231,3.231,0,0,1,.517.674H10.349A.643.643,0,0,1,9.707,4.5V1.708a3.215,3.215,0,0,1,.674.517L12.62,4.464Zm.94,7.74a1.929,1.929,0,0,1-1.927,1.927H5.211A1.929,1.929,0,0,1,3.285,12.2V3.212A1.929,1.929,0,0,1,5.211,1.285h2.9c.1,0,.209.005.311.015V4.5a1.929,1.929,0,0,0,1.927,1.927h3.2c.01.1.015.207.015.312V12.2Zm-1.285-.963v0ZM4.569,6.423a.643.643,0,0,1,.642-.642H6.5a.642.642,0,0,1,0,1.285H5.211A.643.643,0,0,1,4.569,6.423Zm0-2.569a.643.643,0,0,1,.642-.642H6.5A.642.642,0,0,1,6.5,4.5H5.211A.643.643,0,0,1,4.569,3.854Z" transform="translate(-2 -0.001)" fill="#373737"/>
    <g id="Group_215" data-name="Group 215" transform="translate(6.676 8.457)">
      <line id="Line_46" data-name="Line 46" x1="3" y2="3" fill="none" stroke="#373737" stroke-linecap="round" stroke-width="1"/>
      <line id="Line_47" data-name="Line 47" x2="3" y2="3" fill="none" stroke="#373737" stroke-linecap="round" stroke-width="1"/>
    </g>
  </g>
</svg>
