<svg xmlns="http://www.w3.org/2000/svg" width="13.098" height="13.156" viewBox="0 0 13.098 13.156">
  <g id="time-past" transform="translate(0 0)">
    <path id="Path_127" data-name="Path 127" d="M6.625,0A6.6,6.6,0,0,0,2.262,1.666L1.531.936A.548.548,0,0,0,.6,1.323V3.837a.548.548,0,0,0,.548.548H3.657a.548.548,0,0,0,.388-.936l-.622-.622A4.934,4.934,0,1,1,1.747,7.3a.828.828,0,0,0-.815-.721h0a.816.816,0,0,0-.821.912,6.588,6.588,0,0,0,6.774,5.661A6.64,6.64,0,0,0,13.2,6.838,6.585,6.585,0,0,0,6.625,0Z" transform="translate(-0.105 0)" fill="#373737"/>
    <path id="Path_128" data-name="Path 128" d="M10.822,7h0A.822.822,0,0,0,10,7.822v2.353a1.1,1.1,0,0,0,.321.775l.983.983a.822.822,0,1,0,1.163-1.163l-.822-.822V7.822A.822.822,0,0,0,10.822,7Z" transform="translate(-4.577 -3.163)" fill="#373737"/>
  </g>
</svg>
