<svg xmlns="http://www.w3.org/2000/svg" width="12.232" height="14.679" viewBox="0 0 12.232 14.679">
  <g id="trash" transform="translate(-0.001 0)">
    <path id="Path_100" data-name="Path 100" d="M13.62,2.446h-1.9A3.064,3.064,0,0,0,8.728,0H7.5a3.064,3.064,0,0,0-3,2.446h-1.9a.612.612,0,0,0,0,1.223h.612v7.951a3.062,3.062,0,0,0,3.058,3.058h3.67a3.062,3.062,0,0,0,3.058-3.058V3.67h.612a.612.612,0,0,0,0-1.223ZM7.5,1.223H8.728a1.838,1.838,0,0,1,1.73,1.223H5.774A1.838,1.838,0,0,1,7.5,1.223Zm4.281,10.4a1.835,1.835,0,0,1-1.835,1.835H6.281a1.835,1.835,0,0,1-1.835-1.835V3.67h7.339Z" transform="translate(-1.999 0)" fill="#373737"/>
    <path id="Path_101" data-name="Path 101" d="M9.612,14.893a.612.612,0,0,0,.612-.612v-3.67a.612.612,0,1,0-1.223,0v3.67A.612.612,0,0,0,9.612,14.893Z" transform="translate(-4.718 -3.884)" fill="#373737"/>
    <path id="Path_102" data-name="Path 102" d="M13.612,14.893a.612.612,0,0,0,.612-.612v-3.67a.612.612,0,1,0-1.223,0v3.67A.612.612,0,0,0,13.612,14.893Z" transform="translate(-6.272 -3.884)" fill="#373737"/>
  </g>
</svg>
