<svg xmlns="http://www.w3.org/2000/svg" width="50" height="50" viewBox="0 0 50 50">
  <g id="avatar-svgrepo-com" transform="translate(-0.516 -0.517)">
    <g id="Group_12" data-name="Group 12" transform="translate(0.441 0.441)">
      <circle id="Ellipse_3" data-name="Ellipse 3" cx="25" cy="25" r="25" transform="translate(0.075 0.076)" fill="#e5ebe7"/>
    </g>
    <g id="Group_14" data-name="Group 14" transform="translate(18.874 35.911)">
      <g id="Group_13" data-name="Group 13" transform="translate(0 0)">
        <path id="Path_19" data-name="Path 19" d="M171.064,331.433a8.7,8.7,0,0,1-6.276-2.735,16.132,16.132,0,0,1-.307,3.54.7.7,0,0,1,.339.5,6.407,6.407,0,0,0,12.487,0,.687.687,0,0,1,.34-.5,16.135,16.135,0,0,1-.307-3.541A8.7,8.7,0,0,1,171.064,331.433Z" transform="translate(-164.481 -328.698)" fill="#f5c5aa"/>
      </g>
    </g>
    <g id="Group_16" data-name="Group 16" transform="translate(18.874 35.911)">
      <g id="Group_15" data-name="Group 15" transform="translate(0 0)">
        <path id="Path_20" data-name="Path 20" d="M177.2,328.827a8.553,8.553,0,0,1-12.417-.129,16.132,16.132,0,0,1-.307,3.54.7.7,0,0,1,.339.5,5.306,5.306,0,0,0,1.676,3.222C170.695,335.373,175.46,331.227,177.2,328.827Z" transform="translate(-164.481 -328.698)" fill="#c49074"/>
      </g>
    </g>
    <g id="Group_18" data-name="Group 18" transform="translate(16.391 21.211)">
      <g id="Group_17" data-name="Group 17" transform="translate(0 0)">
        <path id="Path_21" data-name="Path 21" d="M151.342,160.07H139.487A3.491,3.491,0,0,0,136,163.557v4.184c0,5.384,4.067,9.764,9.066,9.764s9.066-4.38,9.066-9.764V162.86A2.793,2.793,0,0,0,151.342,160.07Z" transform="translate(-136 -160.07)" fill="#f5c5aa"/>
      </g>
    </g>
    <g id="Group_20" data-name="Group 20" transform="translate(14.299 13.539)">
      <g id="Group_19" data-name="Group 19" transform="translate(0 0)">
        <path id="Path_22" data-name="Path 22" d="M128.039,72.07h-9.066a2.8,2.8,0,0,0-2.711,2.131A4.889,4.889,0,0,0,112,79.044v3.487a6.24,6.24,0,0,0,2.092,4.666V83.229a3.491,3.491,0,0,1,3.487-3.487h11.855a2.793,2.793,0,0,1,2.789,2.79V87.2a6.238,6.238,0,0,0,2.092-4.665V78.347A6.284,6.284,0,0,0,128.039,72.07Z" transform="translate(-112 -72.07)"/>
      </g>
    </g>
    <g id="Group_21" data-name="Group 21" transform="translate(9.909 39.337)">
      <path id="Path_23" data-name="Path 23" d="M61.632,370.836a20.913,20.913,0,0,0,31.1,0,5.252,5.252,0,0,0-2.82-1.975.673.673,0,0,0-.084-.018l-5.567-.835a1.3,1.3,0,0,0-.142-.008.7.7,0,0,0-.692.612,6.408,6.408,0,0,1-12.487,0,.7.7,0,0,0-.71-.612.593.593,0,0,0-.124.008l-5.567.835a.661.661,0,0,0-.084.018A5.253,5.253,0,0,0,61.632,370.836Z" transform="translate(-61.632 -367.999)" fill="#0056d2"/>
    </g>
  </g>
</svg>
