<svg xmlns="http://www.w3.org/2000/svg" width="13.345" height="13.346" viewBox="0 0 13.345 13.346">
  <path id="briefcase" d="M10.565,2.224H9.953A2.785,2.785,0,0,0,7.229,0H6.117A2.785,2.785,0,0,0,3.392,2.224H2.78A2.784,2.784,0,0,0,0,5v5.561a2.784,2.784,0,0,0,2.78,2.78h7.785a2.784,2.784,0,0,0,2.78-2.78V5a2.784,2.784,0,0,0-2.78-2.78ZM6.117,1.112H7.229A1.668,1.668,0,0,1,8.795,2.224H4.551A1.668,1.668,0,0,1,6.117,1.112ZM2.78,3.336h7.785A1.668,1.668,0,0,1,12.233,5V6.673H1.112V5A1.668,1.668,0,0,1,2.78,3.336Zm7.785,8.9H2.78a1.668,1.668,0,0,1-1.668-1.668V7.785h5v.556a.556.556,0,1,0,1.112,0V7.785h5v2.78A1.668,1.668,0,0,1,10.565,12.234Z" fill="#373737"/>
</svg>
