<svg xmlns="http://www.w3.org/2000/svg" width="13.345" height="13.346" viewBox="0 0 13.345 13.346">
  <path id="calendar-lines" d="M10.565,1.112h-.556V.556A.556.556,0,1,0,8.9.556v.556H4.448V.556a.556.556,0,1,0-1.112,0v.556H2.78A2.783,2.783,0,0,0,0,3.893v6.673a2.783,2.783,0,0,0,2.78,2.78h7.785a2.783,2.783,0,0,0,2.78-2.78V3.893A2.783,2.783,0,0,0,10.565,1.112ZM2.78,2.224h7.785a1.67,1.67,0,0,1,1.668,1.668v.556H1.112V3.893A1.67,1.67,0,0,1,2.78,2.224Zm7.785,10.009H2.78a1.67,1.67,0,0,1-1.668-1.668v-5H12.233v5A1.67,1.67,0,0,1,10.565,12.234Zm0-4.449a.556.556,0,0,1-.556.556H3.336a.556.556,0,0,1,0-1.112h6.673A.556.556,0,0,1,10.565,7.785ZM6.673,10.009a.556.556,0,0,1-.556.556H3.336a.556.556,0,0,1,0-1.112h2.78A.556.556,0,0,1,6.673,10.009Z" fill="#373737"/>
</svg>
