<svg xmlns="http://www.w3.org/2000/svg" width="13.153" height="15.784" viewBox="0 0 13.153 15.784">
  <path id="file-spreadsheet_1_" data-name="file-spreadsheet (1)" d="M11.207,9.207H9.234V7.892A1.317,1.317,0,0,0,7.919,6.577H5.946A1.317,1.317,0,0,0,4.631,7.892v3.946a1.317,1.317,0,0,0,1.315,1.315h5.261a1.317,1.317,0,0,0,1.315-1.315V10.522A1.317,1.317,0,0,0,11.207,9.207ZM7.919,11.838H5.946V10.522H7.919Zm0-2.631H5.946V7.892H7.919Zm3.288,2.631H9.234V10.522h1.973Zm2.6-8.2L11.513,1.349A4.574,4.574,0,0,0,8.257,0H5.288A3.292,3.292,0,0,0,2,3.288V12.5a3.292,3.292,0,0,0,3.288,3.288h6.576A3.292,3.292,0,0,0,15.153,12.5V6.9A4.574,4.574,0,0,0,13.8,3.64Zm-.93.93a3.321,3.321,0,0,1,.53.691H10.549A.658.658,0,0,1,9.892,4.6V1.749a3.3,3.3,0,0,1,.691.53Zm.963,7.925a1.975,1.975,0,0,1-1.973,1.973H5.288A1.975,1.975,0,0,1,3.315,12.5V3.288A1.975,1.975,0,0,1,5.288,1.315H8.257c.107,0,.214.005.319.015V4.6a1.975,1.975,0,0,0,1.973,1.973h3.273c.01.105.015.212.015.319Z" transform="translate(-2)" fill="#00acef"/>
</svg>
