<svg xmlns="http://www.w3.org/2000/svg" width="11.121" height="13.346" viewBox="0 0 11.121 13.346">
  <path id="file_1_" data-name="file (1)" d="M11.981,3.078,10.043,1.14A3.869,3.869,0,0,0,7.291,0H4.78A2.784,2.784,0,0,0,2,2.78v7.785a2.784,2.784,0,0,0,2.78,2.78h5.561a2.784,2.784,0,0,0,2.78-2.78V5.83a3.865,3.865,0,0,0-1.14-2.752Zm-.786.786a2.771,2.771,0,0,1,.434.584h-2.4a.556.556,0,0,1-.556-.556v-2.4a2.786,2.786,0,0,1,.584.434Zm.815,6.7a1.668,1.668,0,0,1-1.668,1.668H4.78a1.668,1.668,0,0,1-1.668-1.668V2.78A1.668,1.668,0,0,1,4.78,1.112H7.291c.091,0,.18.018.27.026V3.893A1.668,1.668,0,0,0,9.229,5.561h2.754c.008.09.026.178.026.27Z" transform="translate(-2 0)" fill="#373737"/>
</svg>
