<svg xmlns="http://www.w3.org/2000/svg" width="21.916" height="20.089" viewBox="0 0 21.916 20.089">
  <path id="folder-download" d="M17.35,2.826H11.389a.915.915,0,0,1-.408-.1L8.1,1.29A2.755,2.755,0,0,0,6.874,1H4.566A4.57,4.57,0,0,0,0,5.566V16.524A4.571,4.571,0,0,0,4.566,21.09h.913a.913.913,0,1,0,0-1.826H4.566a2.743,2.743,0,0,1-2.74-2.74V8.305H20.09v8.219a2.743,2.743,0,0,1-2.74,2.74h-.913a.913.913,0,0,0,0,1.826h.913a4.571,4.571,0,0,0,4.566-4.566V7.392A4.571,4.571,0,0,0,17.35,2.826ZM1.826,5.566a2.743,2.743,0,0,1,2.74-2.74H6.874a.915.915,0,0,1,.408.1l2.882,1.441a2.755,2.755,0,0,0,1.225.289H17.35a2.736,2.736,0,0,1,2.571,1.826H1.826V5.565ZM14.343,17.533a.912.912,0,0,1,0,1.291L12.87,20.3a2.708,2.708,0,0,1-3.823,0L7.573,18.824a.913.913,0,0,1,1.291-1.291l1.181,1.181V11.958a.913.913,0,0,1,1.826,0v6.756l1.181-1.181a.912.912,0,0,1,1.291,0Z" transform="translate(0 -1.001)" opacity="0.82"/>
</svg>
