<svg xmlns="http://www.w3.org/2000/svg" width="20.088" height="20.088" viewBox="0 0 20.088 20.088">
  <path id="pencil" d="M19.2.978a3.046,3.046,0,0,0-4.3,0L1.231,14.641A4.173,4.173,0,0,0,0,17.611v1.725a.84.84,0,0,0,.84.84H2.565a4.172,4.172,0,0,0,2.97-1.23L19.2,5.282a3.046,3.046,0,0,0,0-4.3ZM4.347,17.758a2.539,2.539,0,0,1-1.782.738H1.68v-.885a2.5,2.5,0,0,1,.738-1.782L12.788,5.46,14.72,7.392ZM18.009,4.094,15.9,6.2,13.972,4.272l2.106-2.106A1.365,1.365,0,1,1,18.006,4.1Z" transform="translate(0 -0.088)" opacity="0.82"/>
</svg>
