<svg xmlns="http://www.w3.org/2000/svg" width="18.486" height="18.486" viewBox="0 0 18.486 18.486">
  <path id="question-square" d="M9.243,12.324A1.155,1.155,0,1,1,8.088,13.48,1.156,1.156,0,0,1,9.243,12.324Zm.77-1.541a1.462,1.462,0,0,1,.715-1.165,3.081,3.081,0,1,0-4.566-2.7.77.77,0,0,0,1.541,0A1.543,1.543,0,0,1,9.529,5.4a1.558,1.558,0,0,1,1.229,1.229A1.538,1.538,0,0,1,9.985,8.27a3,3,0,0,0-1.512,2.514.77.77,0,0,0,1.541,0Zm8.473,3.851V3.851A3.856,3.856,0,0,0,14.635,0H3.851A3.856,3.856,0,0,0,0,3.851V14.635a3.856,3.856,0,0,0,3.851,3.851H14.635A3.856,3.856,0,0,0,18.486,14.635ZM14.635,1.541a2.314,2.314,0,0,1,2.311,2.311V14.635a2.314,2.314,0,0,1-2.311,2.311H3.851a2.314,2.314,0,0,1-2.311-2.311V3.851A2.314,2.314,0,0,1,3.851,1.541Z" fill="#373737"/>
</svg>
