<svg xmlns="http://www.w3.org/2000/svg" width="13.097" height="13.097" viewBox="0 0 13.097 13.097">
  <g id="stats_1_" data-name="stats (1)" transform="translate(0 0)">
    <path id="Path_123" data-name="Path 123" d="M3,11.46A1.364,1.364,0,0,1,1.637,10.1V.819A.819.819,0,0,0,.819,0h0A.819.819,0,0,0,0,.819V10.1a3,3,0,0,0,3,3h9.277a.819.819,0,0,0,.819-.819h0a.819.819,0,0,0-.819-.819Z" transform="translate(0 0)" fill="#373737"/>
    <path id="Path_124" data-name="Path 124" d="M18.819,13.911a.819.819,0,0,0,.819-.819V9.819a.819.819,0,1,0-1.637,0v3.274A.819.819,0,0,0,18.819,13.911Z" transform="translate(-8.178 -4.088)" fill="#373737"/>
    <path id="Path_125" data-name="Path 125" d="M6.819,13.911a.819.819,0,0,0,.819-.819V9.819A.819.819,0,1,0,6,9.819v3.274A.819.819,0,0,0,6.819,13.911Z" transform="translate(-2.726 -4.088)" fill="#373737"/>
    <path id="Path_126" data-name="Path 126" d="M12.819,11.64a.819.819,0,0,0,.819-.819v-6a.819.819,0,1,0-1.637,0v6A.819.819,0,0,0,12.819,11.64Z" transform="translate(-5.452 -1.817)" fill="#373737"/>
  </g>
</svg>
